<?xml version="1.0" standalone="no"?>
<!DOCTYPE svg PUBLIC "-//W3C//DTD SVG 20010904//EN"
 "http://www.w3.org/TR/2001/REC-SVG-20010904/DTD/svg10.dtd">
<svg version="1.0" xmlns="http://www.w3.org/2000/svg"
 width="700.000000pt" height="700.000000pt" viewBox="0 0 700.000000 700.000000"
 preserveAspectRatio="xMidYMid meet">
<metadata>
Created by potrace 1.14, written by Peter Selinger 2001-2017
</metadata>
<g transform="translate(0.000000,700.000000) scale(0.100000,-0.100000)"
fill="#000000" stroke="none">
<path d="M2048 6605 c-2 -2 -41 -6 -88 -9 -109 -8 -171 -15 -240 -26 -30 -5
-73 -12 -95 -14 -62 -8 -249 -45 -365 -72 -58 -14 -115 -27 -126 -30 -124 -24
-534 -157 -749 -241 -282 -111 -324 -137 -364 -219 -20 -38 -20 -75 -20 -2479
0 -1411 3 -2456 8 -2479 12 -50 57 -105 110 -135 74 -41 141 -32 300 41 282
128 891 310 1186 354 17 3 53 9 80 14 28 5 77 12 110 16 33 3 69 8 80 10 131
25 555 24 715 -2 64 -10 75 -12 140 -27 242 -58 436 -166 574 -321 69 -77 124
-107 195 -108 72 0 129 31 195 106 173 198 448 321 798 360 121 13 442 15 543
2 65 -8 224 -27 252 -31 12 -2 34 -6 50 -9 15 -4 44 -8 63 -11 19 -3 44 -7 55
-9 11 -3 64 -14 118 -25 320 -67 677 -181 1013 -322 121 -50 159 -62 201 -61
94 1 179 68 202 158 8 31 11 750 11 2481 -1 2402 -1 2439 -21 2477 -41 83 -76
105 -339 209 -300 119 -702 243 -941 291 -13 3 -49 10 -79 16 -30 7 -75 16
-100 21 -48 10 -202 34 -285 44 -27 4 -61 8 -75 11 -110 18 -507 25 -662 11
-371 -33 -680 -140 -928 -322 -30 -22 -58 -44 -61 -49 -4 -4 -31 11 -60 34
-199 157 -478 270 -774 314 -22 4 -53 8 -70 11 -87 14 -149 17 -342 20 -117 1
-214 1 -215 0z m3012 -448 c14 -3 52 -8 85 -12 100 -10 119 -13 290 -44 226
-41 429 -93 690 -178 234 -76 423 -151 433 -171 5 -12 8 -4197 3 -4315 -1 -14
-5 -16 -18 -8 -27 14 -364 126 -488 161 -100 29 -309 82 -367 94 -13 2 -57 12
-98 21 -41 9 -91 18 -110 21 -19 3 -42 7 -50 9 -8 2 -37 7 -65 10 -27 3 -59 8
-70 10 -11 2 -49 7 -85 11 -36 3 -68 8 -71 10 -10 5 -281 18 -384 18 -105 -1
-272 -10 -340 -19 -22 -3 -60 -7 -85 -11 -148 -18 -389 -92 -532 -164 l-78
-39 0 37 c-1 20 -1 980 -1 2132 l-1 2095 53 48 c101 91 218 157 371 208 51 17
103 33 117 36 14 2 54 10 91 18 36 7 99 17 140 21 41 3 77 8 80 11 6 5 458 -4
490 -10z"/>
</g>
</svg>
